<svg width="52" height="52" viewBox="0 0 52 52" fill="none" xmlns="http://www.w3.org/2000/svg">
<path d="M11.4939 35.9768C10.8443 36.4236 10.6758 37.3163 11.17 37.9306C13.561 40.9027 16.7982 43.0971 20.469 44.212C24.5965 45.4655 29.0275 45.2798 33.0356 43.6852C37.0438 42.0907 40.3914 39.1819 42.5299 35.4356C44.6684 31.6893 45.4708 27.3277 44.8058 23.0656C44.1408 18.8035 42.0477 14.8937 38.8695 11.977C35.6914 9.0603 31.6167 7.30967 27.3133 7.01202C23.0099 6.71438 18.733 7.88738 15.1836 10.3388C12.0269 12.519 9.61213 15.5953 8.2403 19.1545C7.95676 19.8901 8.38918 20.6891 9.14399 20.9167C9.8988 21.1444 10.6893 20.7139 10.9826 19.9821C12.161 17.0412 14.182 14.5003 16.8061 12.688C19.8231 10.6043 23.4584 9.60722 27.1163 9.86022C30.7742 10.1132 34.2377 11.6013 36.9391 14.0805C39.6405 16.5597 41.4196 19.883 41.9849 23.5058C42.5502 27.1286 41.8681 30.8359 40.0504 34.0203C38.2327 37.2046 35.3872 39.6771 31.9803 41.0325C28.5733 42.3878 24.8071 42.5457 21.2987 41.4802C18.2472 40.5534 15.5482 38.749 13.5298 36.3069C13.0276 35.6992 12.1435 35.5301 11.4939 35.9768Z" fill="#233255" fill-opacity="0.75"/>
<path d="M21.2189 17.6945L35.6622 26.0334L21.2189 34.3722L21.2189 17.6945Z" fill="#233255" fill-opacity="0.75"/>
</svg>
